<svg width="24" height="24" viewBox="0 0 24 24" fill="none" xmlns="http://www.w3.org/2000/svg">
<path d="M21.2594 10.1512C20.9684 9.83417 20.6573 9.53786 20.3362 9.26222C19.9649 8.93835 19.2624 8.91078 18.8409 9.2002L15.8303 11.2675C16.0511 11.7223 16.0912 12.246 15.8905 12.7904C15.5393 13.762 14.3953 14.5476 12.9803 14.7888C12.1875 14.9266 11.4249 14.8991 10.7625 14.7475C10.7625 14.7475 9.32748 15.7329 8.29385 16.4426C7.79209 16.7872 7.95265 17.3936 8.62502 17.5728C9.69879 17.8553 10.8127 18 11.9567 18C13.743 18 15.4791 17.6417 17.0647 16.9732C18.6803 16.2841 20.1355 15.2712 21.3096 13.9826C22.2629 12.942 22.2128 11.1917 21.2594 10.1512Z" fill="#CCCCCC"/>
<path d="M18 7.56545L14.6622 9.8529C13.9434 9.35358 12.9489 9.05668 11.8462 9.05668C9.64062 9.05668 7.86831 10.278 7.86831 11.7827C7.86831 12.5385 8.31139 13.22 9.03015 13.7126L5.70215 16H5.69231C4.59938 15.3927 3.59508 14.6167 2.73846 13.6991C1.75385 12.6397 1.75385 10.919 2.73846 9.85965C3.88062 8.63158 5.27877 7.66667 6.83446 7.0054C8.39015 6.35762 10.0935 6 11.8462 6C14.0418 6 16.1686 6.55331 18 7.56545Z" fill="#CCCCCC"/>
<path d="M21.7675 5.15754C21.4674 4.94749 20.9774 4.94749 20.6773 5.15754L2.22503 18.0828C1.92499 18.2928 1.92499 18.6359 2.22503 18.846C2.37505 18.944 2.56507 19 2.7651 19C2.96512 19 3.15514 18.944 3.30516 18.839L21.7675 5.91373C22.0775 5.70368 22.0775 5.36759 21.7675 5.15754Z" fill="#CCCCCC"/>
</svg>
