<svg width="24" height="24" viewBox="0 0 24 24" fill="none" xmlns="http://www.w3.org/2000/svg">
<path d="M21.25 10.007C18.94 7.4641 15.56 6 12 6C10.22 6 8.49 6.36427 6.91 7.04378C5.33 7.7303 3.91 8.73205 2.75 10.007C1.75 11.1068 1.75 12.8932 2.75 13.993C5.06 16.5429 8.44 18 12 18C13.78 18 15.51 17.6357 17.09 16.9562C18.67 16.2697 20.09 15.268 21.25 13.993C22.25 12.9002 22.25 11.1068 21.25 10.007ZM12 14.8336C9.76 14.8336 7.96 13.5657 7.96 12.0035C7.96 10.4413 9.76 9.17338 12 9.17338C14.24 9.17338 16.04 10.4413 16.04 12.0035C16.04 13.5657 14.24 14.8336 12 14.8336Z" fill="#CCCCCC"/>
<path d="M12 10C10.43 10 9.15 10.8967 9.15 12.0035C9.15 13.1033 10.43 14 12 14C13.57 14 14.86 13.1033 14.86 12.0035C14.86 10.9037 13.57 10 12 10Z" fill="#CCCCCC"/>
</svg>
